<svg xmlns="http://www.w3.org/2000/svg" viewBox="0 0 64 64">
  <defs>
    <linearGradient id="g1" x1="0%" y1="0%" x2="100%" y2="100%">
      <stop offset="0%" stop-color="#00f5ff"/>
      <stop offset="50%" stop-color="#8b5cf6"/>
      <stop offset="100%" stop-color="#ff00ff"/>
    </linearGradient>
    <radialGradient id="g2" cx="50%" cy="50%" r="50%">
      <stop offset="0%" stop-color="#fff"/>
      <stop offset="40%" stop-color="#00f5ff" stop-opacity="0.6"/>
      <stop offset="100%" stop-color="#00f5ff" stop-opacity="0"/>
    </radialGradient>
    <filter id="f1" x="-50%" y="-50%" width="200%" height="200%">
      <feGaussianBlur stdDeviation="1.5" result="b"/>
      <feMerge><feMergeNode in="b"/><feMergeNode in="SourceGraphic"/></feMerge>
    </filter>
    <filter id="f2" x="-100%" y="-100%" width="300%" height="300%">
      <feGaussianBlur stdDeviation="3" result="b"/>
      <feMerge><feMergeNode in="b"/><feMergeNode in="b"/><feMergeNode in="SourceGraphic"/></feMerge>
    </filter>
  </defs>
  <rect width="64" height="64" rx="12" fill="#0a0a0f"/>
  <circle cx="32" cy="32" r="28" fill="none" stroke="url(#g1)" stroke-width="1.5" opacity="0.25" filter="url(#f1)"/>
  <circle cx="32" cy="32" r="22" fill="none" stroke="url(#g1)" stroke-width="1.5" stroke-dasharray="3 6" opacity="0.5" filter="url(#f1)"/>
  <circle cx="32" cy="32" r="16" fill="none" stroke="url(#g1)" stroke-width="1" opacity="0.4"/>
  <g stroke="url(#g1)" stroke-width="0.5" opacity="0.35">
    <line x1="32" y1="4" x2="32" y2="14"/>
    <line x1="32" y1="50" x2="32" y2="60"/>
    <line x1="4" y1="32" x2="14" y2="32"/>
    <line x1="50" y1="32" x2="60" y2="32"/>
  </g>
  <g filter="url(#f2)">
    <circle cx="32" cy="6" r="2.5" fill="#00f5ff"/>
    <circle cx="58" cy="32" r="2" fill="#8b5cf6"/>
    <circle cx="32" cy="58" r="2.5" fill="#ff00ff"/>
    <circle cx="6" cy="32" r="2" fill="#00f5ff"/>
  </g>
  <circle cx="32" cy="32" r="11" fill="url(#g2)"/>
  <circle cx="32" cy="32" r="5" fill="#0a0a0f" stroke="url(#g1)" stroke-width="2" filter="url(#f2)"/>
  <circle cx="32" cy="32" r="2" fill="#fff"/>
</svg>
